<?xml version="1.0" encoding="UTF-8"?>
<svg version="1.1" xmlns="http://www.w3.org/2000/svg" width="512" height="512">
<path d="M0 0 C17.31525394 15.51896437 31.41547454 32.77314776 43.07568359 52.86035156 C43.4567627 53.50875 43.8378418 54.15714844 44.23046875 54.82519531 C54.83292591 73.07569677 61.87861191 93.21529626 66.07568359 113.86035156 C66.23794434 114.6109082 66.40020508 115.36146484 66.56738281 116.13476562 C72.06204242 142.43428191 71.1689659 172.80752353 65.07568359 198.86035156 C64.83962402 199.88193359 64.60356445 200.90351563 64.36035156 201.95605469 C52.77196774 250.46139821 23.77766433 293.08740404 -16.92431641 321.86035156 C-17.51003418 322.27478516 -18.09575195 322.68921875 -18.69921875 323.11621094 C-62.82729386 353.84757383 -118.25460719 364.81937499 -171.02587891 356.04785156 C-211.34613774 348.79715876 -247.93221523 329.54840672 -277.43261719 301.2890625 C-278.80597137 299.97369938 -280.1907988 298.67034307 -281.57666016 297.36816406 C-308.39972357 271.51971432 -327.33827064 235.09210545 -334.92431641 198.86035156 C-335.11751465 197.99200684 -335.31071289 197.12366211 -335.50976562 196.22900391 C-341.12196132 170.30295048 -341.53760714 140.8506566 -335.92431641 114.86035156 C-335.73627441 113.94286133 -335.54823242 113.02537109 -335.35449219 112.08007812 C-327.32665507 73.74827353 -308.91072012 40.03937127 -281.92431641 11.86035156 C-281.45268066 11.36148438 -280.98104492 10.86261719 -280.49511719 10.34863281 C-272.90948516 2.35456344 -264.82304433 -4.64158661 -255.92431641 -11.13964844 C-255.35938477 -11.55424316 -254.79445313 -11.96883789 -254.21240234 -12.39599609 C-178.05365852 -67.51605079 -70.49708121 -61.42012988 0 0 Z " fill="#030100" transform="translate(390.92431640625,95.1396484375)"/>
<path d="M0 0 C3.55109018 0.60653426 6.59920278 1.55748222 9.89453125 3.00390625 C10.8376416 3.41092773 11.78075195 3.81794922 12.75244141 4.23730469 C13.76226074 4.67461914 14.77208008 5.11193359 15.8125 5.5625 C52.76237445 21.22866196 92.22364646 30.35655907 131.93408203 35.59130859 C134.79181221 35.97224826 137.64365001 36.38238156 140.49609375 36.80078125 C185.01543001 43.12641354 230.1386976 42.67869731 275 43 C269.62782847 61.7747124 269.62782847 61.7747124 266.3125 69.9375 C265.97855225 70.7632251 265.64460449 71.5889502 265.30053711 72.43969727 C256.14327016 94.43013888 242.23083254 113.68711195 226 131 C225.54028809 131.49371094 225.08057617 131.98742187 224.60693359 132.49609375 C210.43822717 147.59181284 194.02642861 158.93462125 176 169 C175.28859863 169.41620605 174.57719727 169.83241211 173.84423828 170.26123047 C170.7361635 171.98368026 168.69301328 173.00093272 165.09765625 172.99609375 C160.75753707 171.60046905 156.60945423 169.89649154 152.4375 168.0625 C151.51493408 167.65990967 150.59236816 167.25731934 149.6418457 166.8425293 C146.75569439 165.57375944 143.87683127 164.28974982 141 163 C140.12794922 162.61134766 139.25589844 162.22269531 138.35742188 161.82226562 C111.27394604 149.65432721 85.89660825 133.90386638 63 115 C62.16782959 114.32227539 62.16782959 114.32227539 61.31884766 113.63085938 C52.39057844 106.32056737 44.1550764 98.33820753 36 90.1875 C35.25763596 89.44663147 35.25763596 89.44663147 34.50027466 88.6907959 C28.78311035 82.97232492 23.25425391 77.14850109 18 71 C16.50429773 69.32947538 15.00495734 67.66219168 13.5 66 C10.81016569 63.01937279 8.13689636 60.02754767 5.5 57 C2.76145982 53.8647554 0.01455364 50.73735233 -2.75 47.625 C-3.85601562 46.37589844 -3.85601562 46.37589844 -4.984375 45.1015625 C-7.01214704 42.8355145 -7.01214704 42.8355145 -10 41 C-10.44357272 36.12773505 -9.68916085 32.06470553 -8.3203125 27.40234375 C-7.96839844 26.18869141 -7.61648437 24.97503906 -7.25390625 23.72460938 C-6.88136719 22.47486328 -6.50882813 21.22511719 -6.125 19.9375 C-5.57779297 18.05708008 -5.57779297 18.05708008 -5.01953125 16.13867188 C-3.43665152 10.72522319 -1.80797413 5.34302083 0 0 Z " fill="#F4690D" transform="translate(173,256)"/>
<path d="M0 0 C1.19947266 -0.020625 2.39894531 -0.04125 3.63476562 -0.0625 C10.96012079 -0.09412593 17.47073956 0.69880284 24.55981445 2.54052734 C26.98669689 3.13885774 29.22532668 3.50693621 31.70703125 3.71484375 C35.95034981 4.28093145 38.75550697 5.0196433 42.4375 7.25 C46.65621631 13.12531955 48.4657131 20.38306706 50.4375 27.25 C50.84177091 28.54009529 51.24892777 29.82929311 51.66015625 31.1171875 C52.68043558 34.47673847 53.57411601 37.84702256 54.4375 41.25 C54.78781782 42.54591003 55.13943088 43.84147046 55.4921875 45.13671875 C55.85015177 46.48666327 56.20694553 47.83691878 56.5625 49.1875 C56.87445313 50.37214844 57.18640625 51.55679688 57.5078125 52.77734375 C60.19181149 64.7804637 60.7613758 76.66219568 60.69824219 88.90283203 C60.68748054 91.37947888 60.69822934 93.85540558 60.7109375 96.33203125 C60.71779703 105.51077131 60.21387599 114.21637951 58.4375 123.25 C51.22112152 124.1129489 44.10801958 124.40941227 36.84375 124.41796875 C35.20422867 124.42418495 35.20422867 124.42418495 33.53158569 124.43052673 C30.00018921 124.44016341 26.46890756 124.44018875 22.9375 124.4375 C21.73208557 124.43756042 20.52667114 124.43762085 19.284729 124.43768311 C-0.40215056 124.42362315 -19.94361156 123.89964497 -39.5625 122.25 C-40.5304248 122.16991699 -41.49834961 122.08983398 -42.49560547 122.00732422 C-48.19697599 121.51952304 -53.87950907 120.9164962 -59.5625 120.25 C-60.51318359 120.14042969 -61.46386719 120.03085937 -62.44335938 119.91796875 C-68.79503938 119.18306362 -75.14160591 118.4121889 -81.48681641 117.62353516 C-84.35789429 117.27484892 -87.2305527 116.95191231 -90.10546875 116.63671875 C-132.16262978 111.85003172 -174.26863976 100.19871866 -212.5625 82.25 C-212.05907198 76.52007382 -209.73117537 72.31035518 -207 67.375 C-206.36288086 66.199375 -206.36288086 66.199375 -205.71289062 65 C-204.67039462 63.07899613 -203.62017555 61.1626751 -202.5625 59.25 C-201.67715576 59.54547729 -201.67715576 59.54547729 -200.77392578 59.84692383 C-199.14418381 60.39055943 -197.51412475 60.93324517 -195.88378906 61.47509766 C-194.18787072 62.04123615 -192.49526768 62.6173335 -190.8046875 63.19921875 C-167.45137204 70.48267852 -144.5005179 60.30348483 -124 49.6328125 C-112.20521756 43.35653861 -100.56742825 36.76279196 -89.02734375 30.03125 C-61.19533385 13.82128466 -32.77023167 0.1377624 0 0 Z " fill="#F3690D" transform="translate(393.5625,157.75)"/>
<path d="M0 0 C2.4487238 1.29222491 4.77639855 2.61014646 7.125 4.0625 C8.11959229 4.67085693 8.11959229 4.67085693 9.13427734 5.29150391 C33.15139589 20.15648213 58.4723722 41.78523798 72 67 C72 67.66 72 68.32 72 69 C71.08605469 68.855625 70.17210937 68.71125 69.23046875 68.5625 C19.20016585 61.3391824 -21.50000388 79.28861585 -64 104 C-113.05309571 132.41275118 -113.05309571 132.41275118 -131.375 132.375 C-132.11234375 132.37483887 -132.8496875 132.37467773 -133.609375 132.37451172 C-139.55589462 132.25062589 -144.89180703 131.23991869 -150 128 C-150.33 127.34 -150.66 126.68 -151 126 C-143.91373003 112.18561088 -133.16132144 99.63761853 -123 88 C-122.04287109 86.89205078 -122.04287109 86.89205078 -121.06640625 85.76171875 C-119.38998704 83.82977144 -117.69889249 81.91220635 -116 80 C-115.28070313 79.18789062 -114.56140625 78.37578125 -113.8203125 77.5390625 C-107.59428348 70.55836329 -101.2410961 63.97186714 -94.1484375 57.87109375 C-91.82949683 55.85150724 -89.57471415 53.77034766 -87.3125 51.6875 C-81.47567341 46.42990047 -75.30220396 41.67670755 -69 37 C-68.45891602 36.59668457 -67.91783203 36.19336914 -67.36035156 35.77783203 C-13.01801394 -4.5160531 -13.01801394 -4.5160531 0 0 Z " fill="#F3690D" transform="translate(351,75)"/>
<path d="M0 0 C-3.97959976 3.44744398 -8.08785491 5.71940473 -12.75 8.0625 C-39.62794677 21.95221069 -66.16597163 41.45369477 -87.22265625 63.22265625 C-89.01048049 65.01048049 -90.8761614 66.62534568 -92.8125 68.25 C-101.88563307 76.07780108 -109.6041577 85.61933102 -117 95 C-117.74685059 95.94601074 -117.74685059 95.94601074 -118.50878906 96.91113281 C-125.88544877 106.29275355 -132.75954441 115.8249936 -139 126 C-146.77292056 123.08734805 -151.55624901 112.31392364 -154.97705078 105.13183594 C-166.96618372 78.33719953 -163.35717137 47.79401463 -154.77050781 20.55078125 C-154.04559819 18.15095369 -153.43009103 15.74738486 -152.8359375 13.3125 C-151.29929743 7.58239426 -149.92985981 3.26351634 -144.73046875 -0.140625 C-141.34801079 -1.62284525 -137.88003323 -2.58570295 -134.29443359 -3.4453125 C-131.95960702 -4.00976515 -129.66702586 -4.66416223 -127.36328125 -5.34375 C-116.72984818 -8.4084412 -105.95995888 -10.50727811 -95 -12 C-94.31623291 -12.09643799 -93.63246582 -12.19287598 -92.92797852 -12.29223633 C-61.24480722 -16.33131016 -29.76432152 -10.78002671 0 0 Z " fill="#FC7E25" transform="translate(327,64)"/>
<path d="M0 0 C4.12597414 2.05308473 5.51749163 5.95075821 7.50390625 9.96484375 C7.9421875 10.82432617 8.38046875 11.68380859 8.83203125 12.56933594 C12.18236547 19.30270284 14.60536233 25.91361647 16.44140625 33.21484375 C16.83328125 34.45234375 17.22515625 35.68984375 17.62890625 36.96484375 C22.70915678 57.28584585 21.19909696 83.63784415 13.44140625 103.21484375 C12.78140625 104.20484375 12.12140625 105.19484375 11.44140625 106.21484375 C-0.01966504 108.13443204 -13.00242291 105.1178987 -24.38623047 103.62060547 C-27.29676583 103.2483329 -30.20823157 102.91282885 -33.125 102.59375 C-75.16758607 97.84364612 -117.2864826 86.15336839 -155.55859375 68.21484375 C-155.05516573 62.48491757 -152.72726912 58.27519893 -149.99609375 53.33984375 C-149.57134766 52.55609375 -149.14660156 51.77234375 -148.70898438 50.96484375 C-147.66648837 49.04383988 -146.6162693 47.12751885 -145.55859375 45.21484375 C-144.67324951 45.51032104 -144.67324951 45.51032104 -143.77001953 45.81176758 C-142.14027756 46.35540318 -140.5102185 46.89808892 -138.87988281 47.43994141 C-137.18396447 48.0060799 -135.49136143 48.58217725 -133.80078125 49.1640625 C-110.44746579 56.44752227 -87.49661165 46.26832858 -66.99609375 35.59765625 C-54.18858272 28.78248627 -41.60035997 21.5520717 -29.03198242 14.30834961 C-22.26006524 10.41196529 -15.48634894 6.51670318 -8.55859375 2.90234375 C-6.98078125 2.07283203 -6.98078125 2.07283203 -5.37109375 1.2265625 C-2.55859375 0.21484375 -2.55859375 0.21484375 0 0 Z " fill="#FC7E25" transform="translate(336.55859375,171.78515625)"/>
<path d="M0 0 C1.15039081 1.15039081 2.30044707 2.30111734 3.44921875 3.453125 C4.50916662 4.51040298 5.57454233 5.56225995 6.64453125 6.609375 C10.30871936 10.21566398 13.75937935 13.93968413 17.1171875 17.83203125 C19.89731395 21.0332142 22.74812691 24.16957301 25.59375 27.3125 C26.91791557 28.79143817 28.23697029 30.27521932 29.53222656 31.77954102 C34.06965409 37.04261853 38.83434759 42.02708034 43.75 46.9375 C44.54422363 47.73091797 45.33844727 48.52433594 46.15673828 49.34179688 C51.06524043 54.19932496 56.01691336 58.77129594 61.46484375 63.01953125 C64.20212363 65.15789936 66.80888427 67.41716569 69.4375 69.6875 C95.31505303 91.2243022 125.50805315 107.08421218 156 121 C156 121.66 156 122.32 156 123 C149.88101118 125.17966672 143.80071997 126.83480941 137.4375 128.125 C136.63892578 128.29386719 135.84035156 128.46273437 135.01757812 128.63671875 C126.63172398 130.37266574 118.51676755 131.16557247 109.96484375 131.23828125 C109.01699005 131.24812042 108.06913635 131.25795959 107.09255981 131.26809692 C67.83832558 131.59197476 67.83832558 131.59197476 51 127 C50.05801758 126.75330566 49.11603516 126.50661133 48.14550781 126.25244141 C35.6998389 122.93210163 23.58359352 118.79561535 12.05175781 113.01098633 C10.58109302 112.28632868 9.08086312 111.62052883 7.56542969 110.99487305 C1.57687808 108.26514934 1.57687808 108.26514934 0.02392578 104.859375 C-0.53516111 102.24578709 -0.81219788 99.72814032 -1 97.0625 C-1.09410156 96.20076172 -1.18820313 95.33902344 -1.28515625 94.45117188 C-1.5779582 91.63656154 -1.79078222 88.82198007 -2 86 C-2.09063721 85.04697998 -2.18127441 84.09395996 -2.2746582 83.11206055 C-3.26015467 71.83766733 -3.18608576 60.54287104 -3.18530273 49.23364258 C-3.18748868 45.70576901 -3.20569938 42.17820915 -3.22460938 38.65039062 C-3.30379282 6.60758563 -3.30379282 6.60758563 0 0 Z " fill="#F3690D" transform="translate(159,316)"/>
<path d="M0 0 C3.55109018 0.60653426 6.59920278 1.55748222 9.89453125 3.00390625 C10.8376416 3.41092773 11.78075195 3.81794922 12.75244141 4.23730469 C13.76226074 4.67461914 14.77208008 5.11193359 15.8125 5.5625 C53.80917265 21.67248782 94.20613795 30.59121117 135 36 C136.35943255 36.18333028 137.71880516 36.36710542 139.078125 36.55126953 C147.7160902 37.72144961 156.35652807 38.8711308 165 40 C159.08641666 55.80012105 142.88928696 66.67142997 128.23828125 73.59765625 C124.22643202 75.33499506 120.23570123 76.90528596 116 78 C114.92685547 78.2784375 114.92685547 78.2784375 113.83203125 78.5625 C109.79837498 79.18563035 105.82510312 79.14413194 101.75 79.125 C100.94175781 79.12886719 100.13351562 79.13273437 99.30078125 79.13671875 C91.41792095 79.12410617 84.00787497 78.62283115 76.5 76.0625 C75.88237793 75.85214111 75.26475586 75.64178223 74.62841797 75.42504883 C68.3715893 73.23747725 62.26070728 70.68975583 56.125 68.1875 C40.43536656 61.81585203 24.5528166 56.10268745 7.875 53 C2.70684053 52.02586098 -0.88748338 50.97626144 -4.4375 46.875 C-5.29254123 45.5839121 -6.14683807 44.29233053 -7 43 C-7.99 42.34 -8.98 41.68 -10 41 C-10.44357272 36.12773505 -9.68916085 32.06470553 -8.3203125 27.40234375 C-7.96839844 26.18869141 -7.61648437 24.97503906 -7.25390625 23.72460938 C-6.88136719 22.47486328 -6.50882813 21.22511719 -6.125 19.9375 C-5.57779297 18.05708008 -5.57779297 18.05708008 -5.01953125 16.13867188 C-3.43665152 10.72522319 -1.80797413 5.34302083 0 0 Z " fill="#FD7E25" transform="translate(173,256)"/>
<path d="M0 0 C1.62309989 3.24619979 -0.19118432 6.27381485 -1.25 9.5625 C-8.44841359 33.43369137 -10.84910751 60.92701426 -3 85 C-2.67854004 86.02818848 -2.67854004 86.02818848 -2.35058594 87.07714844 C2.46058486 102.15495152 10.54851145 115.9361003 22 127 C20.66275093 130.42905031 19.20576754 133.76230629 17.6171875 137.08203125 C17.17246094 138.01337891 16.72773438 138.94472656 16.26953125 139.90429688 C15.80933594 140.86400391 15.34914063 141.82371094 14.875 142.8125 C14.40707031 143.79154297 13.93914062 144.77058594 13.45703125 145.77929688 C12.30609188 148.18687413 11.15370472 150.59374699 10 153 C6.4488558 152.43890606 3.88784472 151.57331094 0.84765625 149.6640625 C0.0781665 149.18251709 -0.69132324 148.70097168 -1.48413086 148.20483398 C-2.29374268 147.68348877 -3.10335449 147.16214355 -3.9375 146.625 C-4.77998291 146.08625244 -5.62246582 145.54750488 -6.49047852 144.99243164 C-18.65316306 137.1037156 -29.5206319 127.98604549 -40 118 C-40.79019531 117.26265625 -41.58039063 116.5253125 -42.39453125 115.765625 C-53.80431964 104.81542528 -66.84929164 88.62235114 -71 73 C-70.65256418 68.93500093 -68.11832027 65.70390499 -65.9375 62.375 C-65.53337891 61.75399414 -65.12925781 61.13298828 -64.71289062 60.49316406 C-61.12549356 55.05592767 -57.2385599 49.9491177 -53 45 C-52.34902344 44.23816406 -51.69804688 43.47632813 -51.02734375 42.69140625 C-48.7326704 40.07933883 -46.37999676 37.53467898 -44 35 C-43.48614746 34.44683105 -42.97229492 33.89366211 -42.44287109 33.32373047 C-29.90994753 19.93173925 -15.83597668 9.22538435 0 0 Z " fill="#FC7E25" transform="translate(156,78)"/>
<path d="M0 0 C3.4464176 3.15145393 5.82865373 6.67494504 8.25 10.625 C26.57932095 39.72741135 53.99097848 60.92373847 84 77 C83.37562698 82.69550022 81.92066962 87.81997783 80.125 93.25 C77.89926593 100.12343401 75.79362302 106.99857682 74 114 C70.03089477 113.33113227 66.50488148 112.12449848 62.75 110.6875 C43.23978345 103.6336495 23.66976652 101.66753773 3.0625 101.875 C1.30013536 101.88506231 -0.46223491 101.89418234 -2.22460938 101.90234375 C-6.48321588 101.9240712 -10.74154301 101.95841663 -15 102 C-16.27018943 94.1211346 -16.24388353 86.27510646 -16.25 78.3125 C-16.25067474 77.52721924 -16.25134949 76.74193848 -16.25204468 75.93286133 C-16.2353792 63.72562941 -15.69955798 51.94916544 -13 40 C-12.82839355 39.22382324 -12.65678711 38.44764648 -12.47998047 37.64794922 C-9.58922027 24.9404877 -5.84497206 11.68994411 0 0 Z " fill="#FC7E25" transform="translate(74,170)"/>
<path d="M0 0 C0.72993164 0.17692383 1.45986328 0.35384766 2.21191406 0.53613281 C4.4630653 1.09819256 6.70103097 1.69472799 8.9375 2.3125 C9.9126355 2.5767981 9.9126355 2.5767981 10.9074707 2.84643555 C17.05113188 4.68836959 22.45767619 7.81993634 28 11 C27.81824219 12.25876953 27.81824219 12.25876953 27.6328125 13.54296875 C22.75946082 48.51863886 22.83763495 83.78434067 25 119 C20.10227694 117.47523716 16.88993567 114.65056551 13.125 111.3125 C12.47225098 110.73725586 11.81950195 110.16201172 11.14697266 109.56933594 C-19.7154272 82.07199525 -40.09975648 49.07734203 -51.9375 9.5625 C-52.14914795 8.85875244 -52.3607959 8.15500488 -52.57885742 7.42993164 C-53.53735634 4.1064009 -54 1.49643164 -54 -2 C-36.91245727 -5.21155699 -16.85883642 -4.17234008 0 0 Z " fill="#F3690D" transform="translate(116,291)"/>
<path d="M0 0 C0.99 0.33 1.98 0.66 3 1 C4.03515625 3.30078125 4.03515625 3.30078125 5.0625 6.3125 C9.84594287 18.25695497 18.50471723 25.79719527 28.50390625 33.30859375 C33.6447993 37.19310895 38.31074457 41.58827194 43 46 C40.25874659 48.15668697 37.53467538 49.85763345 34.421875 51.42578125 C33.52073975 51.88533203 32.61960449 52.34488281 31.69116211 52.81835938 C30.72057861 53.31142578 29.74999512 53.80449219 28.75 54.3125 C20.33214468 58.64187339 12.08794615 63.18664469 3.9375 68 C-44.30881169 96.41428473 -44.30881169 96.41428473 -63.375 96.375 C-64.11234375 96.37483887 -64.8496875 96.37467773 -65.609375 96.37451172 C-71.55589462 96.25062589 -76.89180703 95.23991869 -82 92 C-82.33 91.34 -82.66 90.68 -83 90 C-75.91373003 76.18561088 -65.16132144 63.63761853 -55 52 C-54.04287109 50.89205078 -54.04287109 50.89205078 -53.06640625 49.76171875 C-51.38998704 47.82977144 -49.69889249 45.91220635 -48 44 C-47.28070313 43.18789062 -46.56140625 42.37578125 -45.8203125 41.5390625 C-39.59428348 34.55836329 -33.2410961 27.97186714 -26.1484375 21.87109375 C-23.82949683 19.85150724 -21.57471415 17.77034766 -19.3125 15.6875 C-14.29205234 11.14407307 -8.98878075 7.04513135 -3.58984375 2.96875 C-1.19575165 1.2407515 -1.19575165 1.2407515 0 0 Z " fill="#FC7E25" transform="translate(283,111)"/>
<path d="M0 0 C0.72993164 0.17692383 1.45986328 0.35384766 2.21191406 0.53613281 C11.52151571 2.86052236 19.81389301 5.85495219 28 11 C28 11.66 28 12.32 28 13 C26.99755249 13.05945801 26.99755249 13.05945801 25.97485352 13.12011719 C4.70255412 14.44131001 -18.32617268 15.87927083 -35 31 C-36.600402 33.08474236 -36.600402 33.08474236 -37.8125 35.25 C-38.23144531 35.95640625 -38.65039062 36.6628125 -39.08203125 37.390625 C-39.38496094 37.92171875 -39.68789062 38.4528125 -40 39 C-43.08412332 36.44785067 -43.9675742 33.80633319 -45.19140625 30.046875 C-45.57876953 28.86996094 -45.96613281 27.69304687 -46.36523438 26.48046875 C-46.76033203 25.24941406 -47.15542969 24.01835937 -47.5625 22.75 C-47.96146484 21.53441406 -48.36042969 20.31882812 -48.77148438 19.06640625 C-49.86564199 15.71634769 -50.93986344 12.36096167 -52 9 C-52.23831543 8.24783203 -52.47663086 7.49566406 -52.72216797 6.72070312 C-53.66902595 3.59948614 -54 1.32631731 -54 -2 C-36.91245727 -5.21155699 -16.85883642 -4.17234008 0 0 Z " fill="#FA7D25" transform="translate(116,291)"/>
<path d="M0 0 C2.60609443 0.78572697 5.20976374 1.57828968 7.8125 2.375 C8.91948242 2.70757812 8.91948242 2.70757812 10.04882812 3.046875 C11.11713867 3.37558594 11.11713867 3.37558594 12.20703125 3.7109375 C13.18893433 4.00943604 13.18893433 4.00943604 14.19067383 4.31396484 C16 5 16 5 19 7 C18.42258057 7.30591064 17.84516113 7.61182129 17.25024414 7.92700195 C4.43800145 14.74234864 -7.96291758 21.89013545 -20 30 C-21 27 -21 27 -20.171875 24.72265625 C-17.13201 19.03543629 -13.70643708 14.18197157 -9.375 9.4375 C-8.90803711 8.92517822 -8.44107422 8.41285645 -7.95996094 7.88500977 C-5.51541324 5.30277166 -3.32573642 3.31936492 0 2 C0 1.34 0 0.68 0 0 Z " fill="#F1680E" transform="translate(308,58)"/>
</svg>
